<?xml version="1.0" encoding="UTF-8" standalone="no"?>
<svg
   xmlns:dc="http://purl.org/dc/elements/1.1/"
   xmlns:cc="http://creativecommons.org/ns#"
   xmlns:rdf="http://www.w3.org/1999/02/22-rdf-syntax-ns#"
   xmlns:svg="http://www.w3.org/2000/svg"
   xmlns="http://www.w3.org/2000/svg"
   xmlns:sodipodi="http://sodipodi.sourceforge.net/DTD/sodipodi-0.dtd"
   xmlns:inkscape="http://www.inkscape.org/namespaces/inkscape"
   id="Layer_1"
   data-name="Layer 1"
   viewBox="0 0 735 852"
   version="1.1"
   sodipodi:docname="rdflib.svg"
   inkscape:version="0.92.2 5c3e80d, 2017-08-06">
  <metadata
     id="metadata4788">
    <rdf:RDF>
      <cc:Work
         rdf:about="">
        <dc:format>image/svg+xml</dc:format>
        <dc:type
           rdf:resource="http://purl.org/dc/dcmitype/StillImage" />
        <dc:title>RStudio_Hex 2016 v7 outlines</dc:title>
      </cc:Work>
    </rdf:RDF>
  </metadata>
  <sodipodi:namedview
     pagecolor="#ffffff"
     bordercolor="#666666"
     borderopacity="1"
     objecttolerance="10"
     gridtolerance="10"
     guidetolerance="10"
     inkscape:pageopacity="0"
     inkscape:pageshadow="2"
     inkscape:window-width="1288"
     inkscape:window-height="760"
     id="namedview4786"
     showgrid="false"
     inkscape:zoom="0.30340376"
     inkscape:cx="346.74191"
     inkscape:cy="570.55113"
     inkscape:window-x="351"
     inkscape:window-y="206"
     inkscape:window-maximized="0"
     inkscape:current-layer="Layer_1" />
  <defs
     id="defs4671">
    <style
       id="style4666">.cls-1{fill:#ba6f38;}.cls-2{clip-path:url(#clip-path);}.cls-3{fill:#164f86;}.cls-4{fill:#14275b;}.cls-5{fill:#e6b35a;}.cls-6{fill:#fff;}.cls-7{fill:#ba3224;}.cls-8{fill:#b13728;}.cls-9{fill:#aa3729;}.cls-10{fill:#221819;}.cls-11{fill:#1a171b;opacity:0.1;}.cls-12{opacity:0.94;}</style>
    <clipPath
       id="clip-path">
      <polygon
         class="cls-1"
         points="369.5 8 728.2 215.1 728.2 637.2 369.5 845.6 2.8 637.2 2.8 215.1 369.5 8"
         id="polygon4668" />
    </clipPath>
  </defs>
  <title
     id="title4673">RStudio_Hex 2016 v7 outlines</title>
  <path
     class="cls-4"
     d="M 707.6,203.2 429.8,42.8 369.5,8 309.2,42.8 31.3,203.2 2.1,220.1 v 424.3 l 29.3,16.9 281.2,162.4 56.9,32.8 56.9,-32.8 281.2,-162.4 29.3,-16.9 V 220.1 Z m 0,425.3 L 369.5,823.7 31.3,628.5 V 238 L 369.5,42.8 v 0 L 707.6,238 Z"
     id="path4681"
     inkscape:connector-curvature="0"
     style="fill:#14275b" />
  <g
     style="overflow:visible"
     id="g6250"
     transform="matrix(4.8175453,0,0,3.8660266,132.48188,139.56132)">
    <g
       id="g6230"
       style="image-rendering:optimizeQuality;shape-rendering:geometricPrecision;text-rendering:geometricPrecision">
      <path
         id="path6212"
         d="m 84.45,66.836 c -0.636,-0.337 -1.284,-0.624 -1.936,-0.879 l 0.466,-0.038 c 0,0 -4.151,-1.838 -4.514,-15.18 -0.359,-13.344 3.957,-15.62 3.957,-15.62 l -0.62,0.027 C 85.064,33.473 87.869,30.83 89.72,27.342 94.543,18.27 91.092,7.001 82.018,2.177 72.94,-2.641 61.674,0.802 56.854,9.883 54.872,13.608 54.309,17.7 54.935,21.566 L 54.723,21.24 c 0,0 1.093,4.842 -10.258,11.888 -11.349,7.05 -16.469,3.54 -16.469,3.54 l 0.326,0.48 C 27.997,36.947 27.686,36.742 27.347,36.565 18.269,31.741 7,35.188 2.178,44.266 c -4.82,9.077 -1.372,20.341 7.703,25.167 6.766,3.591 14.744,2.59 20.365,-1.914 l -0.122,0.236 c 0,0 4.132,-3.399 16.04,2.994 9.4,5.044 10.796,9.988 10.975,11.846 -0.246,6.893 3.347,13.654 9.847,17.107 9.075,4.825 20.344,1.375 25.164,-7.701 4.824,-9.075 1.378,-20.345 -7.7,-25.165 z m -20.984,2.446 c -1.504,0.532 -5.801,1.121 -14.847,-3.73 -9.797,-5.26 -11.251,-9.654 -11.464,-10.973 0.139,-1.6 0.05,-3.197 -0.223,-4.755 l 0.06,0.09 c 0,0 -0.798,-4.274 10.412,-11.235 10.033,-6.228 14.594,-4.989 15.443,-4.664 0.546,0.371 1.112,0.717 1.706,1.033 1.129,0.6 2.293,1.07 3.472,1.418 1.38,1.314 3.92,5.045 4.184,14.854 0.27,9.883 -2.634,13.694 -4.217,15.042 -1.63,0.738 -3.156,1.723 -4.526,2.92 z"
         inkscape:connector-curvature="0"
         style="fill:#0c479c" />
      <g
         id="g6216">
        <path
           id="path6214"
           d="m 62.239,8.1 c -5.415,5.923 -5.529,14.636 -0.312,19.566 -2.579,-2.483 -2.523,-7.651 0.083,-12.597 0.335,-0.443 1.306,-1.49 2.725,-1.014 0.143,0.049 0.237,0.062 0.292,0.053 0.321,0.069 0.65,0.11 0.99,0.095 2.155,-0.098 3.822,-1.921 3.725,-4.077 C 69.698,9.159 69.297,8.303 68.677,7.646 73.679,4.369 79.419,3.994 81.771,6.142 l 0.09,0.006 C 76.488,1.242 67.705,2.119 62.239,8.1 Z"
           inkscape:connector-curvature="0"
           style="fill:#ffffff" />
      </g>
      <g
         id="g6222">
        <path
           id="path6218"
           d="M 7.632,62.845 C 7.586,62.798 7.539,62.743 7.491,62.697 c 0.03,0.031 0.059,0.069 0.095,0.102 z"
           inkscape:connector-curvature="0"
           style="fill:#ffffff" />
        <path
           id="path6220"
           d="M 7.805,43.13 C 2.389,49.054 2.276,57.765 7.492,62.696 4.914,60.212 4.969,55.044 7.575,50.098 c 0.336,-0.444 1.308,-1.49 2.727,-1.014 0.141,0.049 0.236,0.061 0.292,0.054 0.321,0.069 0.651,0.11 0.99,0.095 2.156,-0.099 3.822,-1.922 3.725,-4.076 -0.045,-0.967 -0.445,-1.824 -1.063,-2.48 4.999,-3.276 10.74,-3.654 13.092,-1.505 l 0.089,0.008 C 22.054,36.271 13.269,37.147 7.805,43.13 Z"
           inkscape:connector-curvature="0"
           style="fill:#ffffff" />
      </g>
      <g
         id="g6228">
        <path
           id="path6224"
           d="m 65.256,92.504 c -0.047,-0.048 -0.094,-0.102 -0.141,-0.148 0.029,0.031 0.059,0.069 0.094,0.101 z"
           inkscape:connector-curvature="0"
           style="fill:#ffffff" />
        <path
           id="path6226"
           d="m 65.428,72.786 c -5.416,5.926 -5.529,14.639 -0.313,19.569 -2.58,-2.483 -2.523,-7.653 0.082,-12.597 0.336,-0.445 1.307,-1.49 2.727,-1.014 0.143,0.047 0.235,0.061 0.292,0.053 0.32,0.069 0.651,0.11 0.99,0.096 2.154,-0.1 3.82,-1.924 3.723,-4.08 -0.044,-0.966 -0.445,-1.822 -1.063,-2.479 5,-3.275 10.739,-3.652 13.093,-1.504 l 0.088,0.007 c -5.37,-4.907 -14.156,-4.03 -19.619,1.949 z"
           inkscape:connector-curvature="0"
           style="fill:#ffffff" />
      </g>
    </g>
  </g>
  <g
     aria-label="rdflib"
     transform="matrix(1.7272882,0,0,1.9981389,-189.48857,-543.26506)"
     style="font-style:normal;font-weight:normal;font-size:40px;line-height:125%;font-family:sans-serif;letter-spacing:0px;word-spacing:0px;fill:#000000;fill-opacity:1;stroke:none;stroke-width:1px;stroke-linecap:butt;stroke-linejoin:miter;stroke-opacity:1"
     id="flowRoot6271">
    <path
       d="m 236.29427,581.75716 q -1.95833,-0.91666 -3.91666,-1.33333 -1.91667,-0.45833 -3.875,-0.45833 -5.75,0 -8.87501,3.70833 -3.08333,3.66667 -3.08333,10.54167 v 21.5 H 201.6276 v -46.66667 h 14.91667 v 7.66667 q 2.875,-4.58334 6.58334,-6.66667 3.75,-2.125 8.95833,-2.125 0.75,0 1.625,0.0833 0.875,0.0417 2.54167,0.25 z"
       style="font-style:normal;font-variant:normal;font-weight:bold;font-stretch:normal;font-size:85.33333588px;font-family:sans-serif;-inkscape-font-specification:'sans-serif Bold'"
       id="path6279" />
    <path
       d="m 275.54427,575.88216 v -25 h 15 v 64.83334 h -15 v -6.75 q -3.08333,4.125 -6.79166,6.04166 -3.70834,1.91667 -8.58334,1.91667 -8.625,0 -14.16666,-6.83333 -5.54167,-6.875 -5.54167,-17.66667 0,-10.79167 5.54167,-17.625 5.54166,-6.875 14.16666,-6.875 4.83334,0 8.54167,1.95833 3.75,1.91667 6.83333,6 z m -9.83333,30.20834 q 4.79167,0 7.29167,-3.5 2.54166,-3.5 2.54166,-10.16667 0,-6.66667 -2.54166,-10.16667 -2.5,-3.5 -7.29167,-3.5 -4.75,0 -7.29167,3.5 -2.5,3.5 -2.5,10.16667 0,6.66667 2.5,10.16667 2.54167,3.5 7.29167,3.5 z"
       style="font-style:normal;font-variant:normal;font-weight:bold;font-stretch:normal;font-size:85.33333588px;font-family:sans-serif;-inkscape-font-specification:'sans-serif Bold'"
       id="path6281" />
    <path
       d="m 335.66927,550.88216 v 9.79167 h -8.25 q -3.16666,0 -4.41666,1.16666 -1.25,1.125 -1.25,3.95834 v 3.25 h 12.75 v 10.66667 h -12.75 v 36 h -14.91667 v -36 h -7.41667 v -10.66667 h 7.41667 v -3.25 q 0,-7.625 4.25,-11.25 4.25,-3.66667 13.16667,-3.66667 z"
       style="font-style:normal;font-variant:normal;font-weight:bold;font-stretch:normal;font-size:85.33333588px;font-family:sans-serif;-inkscape-font-specification:'sans-serif Bold'"
       id="path6283" />
    <path
       d="m 342.1276,550.88216 h 14.91667 V 615.7155 H 342.1276 Z"
       style="font-style:normal;font-variant:normal;font-weight:bold;font-stretch:normal;font-size:85.33333588px;font-family:sans-serif;-inkscape-font-specification:'sans-serif Bold'"
       id="path6285" />
    <path
       d="m 371.46095,569.04883 h 14.91666 v 46.66667 h -14.91666 z m 0,-18.16667 h 14.91666 v 12.16667 h -14.91666 z"
       style="font-style:normal;font-variant:normal;font-weight:bold;font-stretch:normal;font-size:85.33333588px;font-family:sans-serif;-inkscape-font-specification:'sans-serif Bold'"
       id="path6287" />
    <path
       d="m 425.62761,606.0905 q 4.79167,0 7.29167,-3.5 2.54166,-3.5 2.54166,-10.16667 0,-6.66667 -2.54166,-10.16667 -2.5,-3.5 -7.29167,-3.5 -4.79167,0 -7.375,3.54167 -2.54167,3.5 -2.54167,10.125 0,6.625 2.54167,10.16667 2.58333,3.5 7.375,3.5 z m -9.91667,-30.20834 q 3.08334,-4.08333 6.83334,-6 3.75,-1.95833 8.625,-1.95833 8.625,0 14.16666,6.875 5.54167,6.83333 5.54167,17.625 0,10.79167 -5.54167,17.66667 -5.54166,6.83333 -14.16666,6.83333 -4.875,0 -8.625,-1.91667 -3.75,-1.95833 -6.83334,-6.04166 v 6.75 h -14.91666 v -64.83334 h 14.91666 z"
       style="font-style:normal;font-variant:normal;font-weight:bold;font-stretch:normal;font-size:85.33333588px;font-family:sans-serif;-inkscape-font-specification:'sans-serif Bold'"
       id="path6289" />
  </g>
  <path
     style="opacity:1;fill:#ffffff;fill-opacity:1;stroke:none;stroke-width:3.29593801;stroke-opacity:1"
     d="M 198.58949,723.50997 32.968605,627.58018 33.074189,432.92613 33.179773,238.27208 201.36374,141.49518 369.54772,44.718277 449.27749,90.621779 c 43.8514,25.246921 119.39377,68.796531 167.87194,96.776901 l 88.14215,50.8734 0.0231,194.9344 0.0231,194.9344 -166.23255,95.93214 c -91.42794,52.76266 -168.18209,95.80491 -170.56479,95.64944 -2.3805,-0.15551 -78.85941,-43.45111 -169.9509,-96.21249 z m 77.54517,-37.17719 c 4.10585,-2.87587 7.32524,-3.60016 7.32524,-1.64797 0,1.9305 6.6106,3.48282 14.83172,3.48282 h 14.83172 V 622.24887 556.3301 H 298.29162 283.4599 v 21.171 21.17096 l -9.91632,-4.9469 c -29.26718,-14.60038 -54.97302,18.80497 -47.68148,61.96324 4.66411,27.60658 31.36899,43.88492 50.27256,30.64438 z m 291.85266,1.4954 c 12.71458,-5.79314 21.99482,-25.7251 21.99482,-47.24009 0,-20.91032 -5.54614,-34.22126 -18.5063,-44.4157 -10.40557,-8.18503 -17.98073,-8.63677 -31.09645,-1.85436 l -9.72414,5.02855 V 577.83834 556.3301 h -14.83172 -14.83172 v 65.91877 65.91876 h 14.83172 c 8.15745,0 14.83172,-1.39521 14.83172,-3.10049 0,-1.70525 4.07873,-0.9728 9.06383,1.62766 10.90877,5.69057 17.67124,5.9617 28.26824,1.13338 z M 185.37644,658.19404 c 1.96112,-34.39496 5.63566,-40.56308 23.75886,-39.88174 l 11.70177,0.4399 V 603.5896 588.427 l -11.94457,1.93831 c -6.56951,1.06611 -14.72696,4.45637 -18.12766,7.53396 -5.69668,5.15544 -6.18308,5.16651 -6.18308,0.1409 0,-4.16656 -3.11343,-5.45475 -13.18376,-5.45475 h -13.18375 v 47.7911 47.79111 h 12.72659 12.72659 z m 183.77785,-6.28173 v -36.25532 h 9.88781 c 9.10305,0 9.88782,-0.91555 9.88782,-11.53578 0,-10.62024 -0.78477,-11.53579 -9.88782,-11.53579 -7.69051,0 -9.88781,-1.46484 -9.88781,-6.59187 0,-5.33629 2.1973,-6.59188 11.53578,-6.59188 10.98645,0 11.53578,-0.54933 11.53578,-11.53578 V 556.3301 h -18.27746 c -15.01115,0 -19.72325,1.44577 -26.36752,8.09005 -5.04751,5.0475 -8.09003,11.86498 -8.09003,18.12766 0,7.84031 -1.44299,10.03761 -6.59187,10.03761 -5.33628,0 -6.59188,2.19731 -6.59188,11.53579 0,9.33848 1.2556,11.53578 6.59188,11.53578 6.19237,0 6.59187,2.1973 6.59187,36.25532 v 36.25532 h 14.83173 14.83172 z m 59.32688,-29.66344 V 556.3301 h -14.83172 -14.83172 v 65.91877 65.91876 h 14.83172 14.83172 z m 49.43907,18.12765 v -47.7911 h -13.18375 -13.18375 v 47.7911 47.79111 h 13.18375 13.18375 z m 0,-70.86266 V 556.3301 h -13.18375 -13.18375 v 13.18376 13.18375 h 13.18375 13.18375 z m 56.70751,-41.37813 c 18.5002,-6.30365 39.5206,-23.83484 46.68736,-38.93765 8.09891,-17.0672 6.97707,-43.26585 -2.54664,-59.47201 -8.52442,-14.50572 -19.02778,-23.4216 -40.49169,-34.37166 -18.10129,-9.23459 -25.34,-27.57175 -25.4458,-64.45968 -0.0995,-34.73741 5.88718,-47.32405 30.34007,-63.78681 23.06553,-15.52873 32.02096,-31.61705 31.87093,-57.25586 -0.0854,-14.61098 -2.03785,-21.44778 -9.22718,-32.31159 -31.21085,-47.16276 -113.64002,-52.33999 -152.28489,-9.56473 -14.217,15.73652 -18.00812,25.02771 -18.00812,44.13391 0,12.05038 -2.00891,16.83129 -11.47533,27.30948 -19.42765,21.50409 -68.54708,43.34812 -97.47446,43.34812 -6.69412,0 -18.6611,-2.37082 -26.59326,-5.26848 -18.90325,-6.90546 -53.44082,-6.9681 -74.01563,-0.13424 -54.80357,18.20282 -71.43456,77.5583 -32.17063,114.81596 22.18924,21.05541 67.47931,31.01125 96.70804,21.25867 8.15744,-2.72182 21.18418,-7.29055 28.94829,-10.15271 12.6008,-4.64513 16.57865,-4.69058 37.04599,-0.423 43.55363,9.0812 88.88755,37.38385 88.9332,55.52235 0.0768,30.50262 25.7503,61.59176 59.28717,71.79321 14.59431,4.4394 54.29204,3.2792 69.91258,-2.04328 z"
     id="path13490"
     inkscape:connector-curvature="0" />
  <path
     style="opacity:1;fill:#ffffff;fill-opacity:1;stroke:none;stroke-width:3.29593801;stroke-opacity:1"
     d="m 399.8176,402.96464 c -27.02846,-7.2818 -58.16009,-22.67489 -73.03212,-36.11088 -12.15119,-10.97787 -13.66214,-13.97682 -13.66214,-27.11673 0,-17.17754 8.30902,-26.8122 37.109,-43.02946 41.79642,-23.53554 77.27523,-29.40687 102.80207,-17.01255 17.53515,8.51403 23.23786,23.42273 23.23786,60.75114 0,39.00682 -3.85604,47.08438 -28.41893,59.53133 -17.97484,9.10855 -23.938,9.47937 -48.03574,2.98715 z"
     id="path13492"
     inkscape:connector-curvature="0" />
</svg>
